<?xml version="1.0" encoding="utf-8"?>
<!-- Generator: Adobe Illustrator 24.1.1, SVG Export Plug-In . SVG Version: 6.00 Build 0)  -->
<svg version="1.1"
	 id="svg44" xmlns:cc="http://creativecommons.org/ns#" xmlns:dc="http://purl.org/dc/elements/1.1/" xmlns:inkscape="http://www.inkscape.org/namespaces/inkscape" xmlns:rdf="http://www.w3.org/1999/02/22-rdf-syntax-ns#" xmlns:sodipodi="http://sodipodi.sourceforge.net/DTD/sodipodi-0.dtd" xmlns:svg="http://www.w3.org/2000/svg"
	 xmlns="http://www.w3.org/2000/svg" xmlns:xlink="http://www.w3.org/1999/xlink" x="0px" y="0px" viewBox="0 0 560 560"
	 style="enable-background:new 0 0 560 560;" xml:space="preserve">
<style type="text/css">
	.st0{display:none;}
	.st1{display:inline;fill:#0260B1;}
	.st2{display:inline;fill:#1F62A3;}
	.st3{fill:#812266;}
</style>
<sodipodi:namedview  bordercolor="#666666" borderopacity="1" gridtolerance="10" guidetolerance="10" id="namedview46" inkscape:current-layer="svg44" inkscape:cx="-172.33051" inkscape:cy="280" inkscape:pageopacity="0" inkscape:pageshadow="2" inkscape:window-height="711" inkscape:window-maximized="1" inkscape:window-width="1366" inkscape:window-x="0" inkscape:window-y="20" inkscape:zoom="0.33714286" objecttolerance="10" pagecolor="#ffffff" showgrid="false">
	</sodipodi:namedview>
<g class="st0">
	<path class="st1" d="M442,188.7c-0.6-0.3-1.1-0.6-1.7-0.9c-1.8-0.9-3.5-1.7-5.3-2.6h0.1c-0.6-0.3-1.3-0.6-1.9-0.9h-0.3l-0.3-0.2
		c-0.5-4.1-3.5-3.5-6.3-3.2l0.1,0.1c-0.5-0.9-1.1-1.8-1.2-2c4.9-0.9,10-1.9,15-2.8l-0.1,0.1c6.6-0.3,13.1-0.4,19.7-0.8
		c2.7-0.2,5.3-1.2,8-1.8l-0.1,0.1c0.1,0,0.3,0.1,0.4,0.1c13-0.8,26.1-1.6,39.1-2.6c1-0.1,2-1,2.9-1.6c4.3,0.1,8.6,0.1,12.9,0.2
		c0.3,0.2,0.6,0.4,1,0.6h-0.1c0.9,0.3,1.8,0.6,2.6,0.9l0,0c1.2,0.6,2.4,1.1,3.6,1.7l0,0c1.4,0.6,2.9,1.2,4.3,1.8h-0.1
		c0.7,0.3,1.5,0.6,2.2,0.8l0.3,0.1c3.4,3.3,7.4,5.3,12.3,5.1c0.2-0.1,0.4,0,0.6,0.1c0.4,0.2,0.7,0.4,1.1,0.6l-0.1-0.1
		c0.7,1.8,0.4,2.7-1.9,3c-10,1-20,2.1-30,3.4c-3.3,0.4-6.5,1.6-9.7,2.5l0,0c-0.3,0-0.6,0-0.8,0l-0.4,0.1l-0.4-0.1
		c-4,0.5-8.1,1.1-12.1,1.6c-1.3,0.1-2.5,0.2-3.8,0.2c-3.5,0.2-7.1,0.3-10.6,0.6c-6.9,0.6-13.9,1.4-20.8,1.8
		c-1.6,0.1-3.3-0.7-4.9-1.1c-2-0.4-4-0.9-6-1.3h-0.2L449,192C447.8,188.5,445.2,188,442,188.7z"/>
	<path class="st2" d="M509.3,190.3c3.2-0.8,6.4-2,9.7-2.5c10-1.3,20-2.4,30-3.4c2.3-0.2,2.6-1.1,1.9-3c2.1,0.7,4.2,1.4,6.2,2.1
		c0,0.4-0.1,0.8-0.1,1.2c-4.3,0.6-8.5,1.2-12.8,1.7C532.6,187.8,520.9,189,509.3,190.3z"/>
	<path class="st2" d="M449.3,192.2c2,0.4,4,0.9,6,1.3c1.6,0.4,3.3,1.2,4.9,1.1c6.9-0.5,13.9-1.3,20.8-1.8c3.5-0.3,7.1-0.4,10.6-0.6
		c-11.1,1.4-22.2,3.2-33.3,4C455.5,196.4,452.4,193.6,449.3,192.2z"/>
	<path class="st2" d="M510.2,169.7c-1,0.5-1.9,1.5-2.9,1.6c-13,0.9-26,1.7-39.1,2.6c-0.1,0-0.3,0-0.4-0.1c4.9-0.6,9.8-1.4,14.7-1.9
		C491.7,171,500.9,170.4,510.2,169.7z"/>
	<path class="st2" d="M467.8,173.7c-2.7,0.6-5.3,1.6-8,1.8c-6.5,0.5-13.1,0.6-19.7,0.8C449.4,175.4,458.6,174.5,467.8,173.7z"/>
	<path class="st2" d="M440.2,176.2c-5,1-10.1,1.9-15,2.8c0.1,0.2,0.6,1.1,1.2,2c-1.8-0.7-3.6-1.4-5.4-2.2c0-0.4,0.1-0.9,0.1-1.3
		C427.5,177.1,433.9,176.7,440.2,176.2z"/>
	<path class="st2" d="M549.2,180.7c-4.9,0.2-8.9-1.8-12.3-5.1C541,177.3,545.1,179,549.2,180.7z"/>
	<path class="st2" d="M442,188.7c3.2-0.7,5.8-0.2,7,3.3C446.6,191,444.3,189.8,442,188.7z"/>
	<path class="st2" d="M495.5,191.9c4-0.5,8.1-1.1,12.1-1.6C503.6,190.9,499.5,191.4,495.5,191.9z"/>
	<path class="st2" d="M426.3,181c2.8-0.3,5.7-0.9,6.3,3.2C430.5,183.1,428.4,182.1,426.3,181z"/>
	<path class="st2" d="M435.1,185.2c1.8,0.9,3.5,1.7,5.3,2.6C438.6,186.9,436.8,186.1,435.1,185.2z"/>
	<path class="st2" d="M534.4,174.7c-1.4-0.6-2.9-1.2-4.3-1.8C531.6,173.5,533,174.1,534.4,174.7z"/>
	<path class="st2" d="M530.2,172.9c-1.2-0.6-2.4-1.1-3.6-1.7C527.8,171.8,529,172.4,530.2,172.9z"/>
	<path class="st2" d="M526.6,171.3c-0.9-0.3-1.8-0.6-2.6-0.9C524.9,170.7,525.8,171,526.6,171.3z"/>
	<path class="st2" d="M536.6,175.5c-0.7-0.3-1.5-0.6-2.2-0.8C535.1,174.9,535.8,175.2,536.6,175.5z"/>
	<path class="st2" d="M433.2,184.4c0.6,0.3,1.3,0.6,1.9,0.9C434.5,185,433.9,184.7,433.2,184.4z"/>
	<path class="st2" d="M524.1,170.4c-0.3-0.2-0.6-0.4-1-0.6C523.4,170,523.8,170.2,524.1,170.4z"/>
	<path class="st2" d="M550.9,181.5c-0.4-0.2-0.7-0.4-1.1-0.6C550.2,181.1,550.6,181.3,550.9,181.5z"/>
	<path class="st2" d="M508.4,190.3c0.3-0.1,0.6-0.1,0.8,0C509,190.3,508.7,190.3,508.4,190.3z"/>
	<polygon class="st1" points="557.1,183.9 523.1,169.8 494.5,171.3 420.1,177.7 421,178.8 457.3,196.2 557,184.7 	"/>
	<polyline class="st1" points="557.1,183.5 536.9,177 557.1,183.9 	"/>
</g>
<g>
	<path id="XMLID_443_" class="st3" d="M173.7,286.1c-2.8,1.7-4.2,4.4-4.2,8.1c0,2.9,0.9,5,2.6,6.5c1.7,1.5,4.2,2.2,7.3,2.2
		c4.9,0,8.8-1.3,11.6-4c2.8-2.7,4.2-6.5,4.2-11.3v-4.7l-7.9,0.3C181,283.4,176.5,284.4,173.7,286.1z"/>
	<path id="XMLID_447_" class="st3" d="M318.8,404.1v-64.1c0-14.7-4.5-25.1-13.4-31.4c-8.6-6-20.8-9.1-36.8-9.4v104.6h-2.2v0v0h-2.2
		V162.5h4.5v106.9c17.3-0.5,30-3.9,37.9-10.1c8.2-6.5,12.3-16.5,12.3-30v-64.7c0-21.8,7.7-38.8,23-51c9.1-7.2,20.1-12.2,32.8-15.2
		l-67.5-67.1c-16.1-16-42.1-16-58.2,0L29,249.9c-16.1,16-16.1,41.8,0,57.8l219.9,218.5c16.1,16,42.1,16,58.2,0l58.8-58.4
		c-9.7-3-18-7.4-25-13C326.2,442.7,318.8,425.8,318.8,404.1z M147.1,308.5H139v-32.7h-36.8v32.7H94V239h8.1v29.6H139V239h8.1V308.5z
		 M203.2,308.5h-5.9l-1.6-7.4h-0.4c-2.6,3.3-5.2,5.5-7.8,6.6c-2.6,1.2-5.8,1.7-9.7,1.7c-5.2,0-9.3-1.3-12.2-4
		c-2.9-2.7-4.4-6.4-4.4-11.4c0-10.5,8.5-16,25.4-16.5l8.9-0.3V274c0-4.1-0.9-7.1-2.7-9.1s-4.6-2.9-8.5-2.9c-4.4,0-9.3,1.3-14.8,4
		l-2.4-6c2.6-1.4,5.4-2.5,8.5-3.3c3.1-0.8,6.2-1.2,9.3-1.2c6.2,0,10.9,1.4,13.9,4.1c3,2.8,4.5,7.2,4.5,13.3V308.5z M228.8,297.4
		c2.6,3.4,6.4,5.1,11.6,5.1c4.4,0,8.8-0.9,13.4-2.8v7c-3.5,1.8-7.9,2.7-13.2,2.7c-7.6,0-13.5-2.3-17.6-7c-4.2-4.6-6.2-11.2-6.2-19.7
		c0-8.7,2.1-15.4,6.3-20.2c4.2-4.8,10.2-7.1,18.1-7.1c2.5,0,5,0.3,7.6,0.8c2.5,0.5,4.5,1.2,5.9,1.9l-2.4,6.7
		c-1.8-0.7-3.7-1.3-5.7-1.7c-2.1-0.5-3.9-0.7-5.5-0.7c-10.7,0-16,6.7-16,20.2C224.9,289.1,226.2,294,228.8,297.4z"/>
	<path id="XMLID_452_" class="st3" d="M527,249.9L401.2,124.9c-31.1,1.4-46.7,15.4-46.7,42v62.4c0,30.3-15.8,48.2-47.4,53.7v2.5
		c31.6,5.5,47.4,23.4,47.4,53.7V402c0,14.4,4.1,24.8,12.4,31.3c6,4.7,14.1,7.8,24.3,9.2L527,307.7C543,291.7,543,265.8,527,249.9z
		 M393.1,239l-2.4,50.3h-5l-2.4-50.3H393.1z M392.4,308.2c-1,1.1-2.4,1.7-4.3,1.7c-1.7,0-3-0.5-4.1-1.5c-1.1-1-1.6-2.6-1.6-4.9
		c0-4.3,1.9-6.5,5.7-6.5c1.8,0,3.3,0.6,4.3,1.7c1,1.1,1.5,2.7,1.5,4.8C393.9,305.5,393.4,307,392.4,308.2z M454.5,246.2h-22.1v62.3
		h-8.1v-62.3h-22.1V239h52.4V246.2z"/>
</g>
</svg>
