<?xml version="1.0" encoding="utf-8"?>
<!-- Generator: Adobe Illustrator 22.1.0, SVG Export Plug-In . SVG Version: 6.00 Build 0)  -->
<svg version="1.1"
	 id="svg44" inkscape:export-filename="/home/umarcor/filebrowser/logo/icon_raw.svg.png" inkscape:export-xdpi="96" inkscape:export-ydpi="96" inkscape:version="0.92.3 (2405546, 2018-03-11)" sodipodi:docname="icon_raw.svg" xmlns:cc="http://creativecommons.org/ns#" xmlns:dc="http://purl.org/dc/elements/1.1/" xmlns:inkscape="http://www.inkscape.org/namespaces/inkscape" xmlns:rdf="http://www.w3.org/1999/02/22-rdf-syntax-ns#" xmlns:sodipodi="http://sodipodi.sourceforge.net/DTD/sodipodi-0.dtd" xmlns:svg="http://www.w3.org/2000/svg"
	 xmlns="http://www.w3.org/2000/svg" xmlns:xlink="http://www.w3.org/1999/xlink" x="0px" y="0px" viewBox="0 0 560 560"
	 style="enable-background:new 0 0 560 560;" xml:space="preserve">
<style type="text/css">
	.st0{fill:#0260B1;}
	.st1{display:none;}
	.st2{display:inline;fill:#0260B1;}
	.st3{display:inline;fill:#1F62A3;}
</style>
<sodipodi:namedview  bordercolor="#666666" borderopacity="1" gridtolerance="10" guidetolerance="10" id="namedview46" inkscape:current-layer="svg44" inkscape:cx="-172.33051" inkscape:cy="280" inkscape:pageopacity="0" inkscape:pageshadow="2" inkscape:window-height="711" inkscape:window-maximized="1" inkscape:window-width="1366" inkscape:window-x="0" inkscape:window-y="20" inkscape:zoom="0.33714286" objecttolerance="10" pagecolor="#ffffff" showgrid="false">
	</sodipodi:namedview>
<path d="M186,332.6c-1.4,0-2.6,0-3.7,0c-29.5,0-58.9,0-88.4,0c-4.5,0-8,3.3-8,7.9c0,35.6,0,71.3,0,106.9c0,4.3,3.5,7.7,7.8,7.7
	c2.5,0,5.5,0.5,7.5-0.6c2.7-1.5,4.6-4,4.6-8c-0.2-29.7-0.1-59.5-0.1-89.2c0-1.4,0-2.8,0-4.6c26.8,0,53.5,0,80.3,0
	c0.1,0.8,0.2,1.7,0.2,2.5c-0.1,29.2,0.3,58.4-0.3,87.5c-0.5,26.6-18.2,45.1-44.7,46c-28.6,1-57.2,1-85.7,0.7c-8-0.1-16.3-2-23.8-4.8
	c-15-5.5-23-17.4-25.8-32.7c-1.1-6.5-1.7-13.1-1.7-19.6C4,333.5,3.9,235,4.2,136.4c0-8.7,1.7-17.8,4.6-26
	c5.8-16,18.9-23.7,35.3-26.1c5.5-0.8,11.1-0.9,16.7-1c25.6-0.1,51.2-0.4,76.7,0.2c15.6,0.4,30,4.8,39.7,18.5
	c6.5,9.1,8.8,19.5,8.8,30.4c0.1,66,0,131.9,0,197.9C186.2,330.9,186.1,331.5,186,332.6z M105.7,204.9c0-25,0.1-50-0.1-75
	c0-2.1-1.4-4.4-2.5-6.3c-2-3.5-5.6-2.1-8.6-2.2c-5.3-0.2-8.6,3.3-8.6,8.6c0,49.8,0,99.7,0.1,149.5c0,2.1,1.4,4.3,2.5,6.3
	c1.9,3.4,5.3,2.6,8.4,2.6c5.1,0.1,8.7-3.5,8.7-8.5C105.7,254.8,105.7,229.9,105.7,204.9z"/>
<path d="M212.4,332c0-2,0-3.4,0-4.8c0-63.8-0.1-127.6,0.2-191.4c0-7.6,1.1-15.5,3.4-22.8c5.4-17.5,18.7-26.1,36.2-28.7
	c5.6-0.8,11.4-0.9,17.2-1c25.4-0.1,50.9-0.4,76.3,0.2c15.8,0.4,30.3,4.9,40,18.7c5,7.1,7.5,15.1,8.1,23.6c0.6,8.3,0.8,16.6,0.8,24.9
	c0.1,37.7,0,75.3,0,113c0,1.5,0,3.1,0,4.8c-27,0-53.7,0-81,0c0-1.2,0-2.6,0-3.9c0-44.8,0-89.7,0-134.5c0-5.7-2.9-8.8-8.3-8.8
	c-7.9,0-11.3,2.6-11.3,8.7c0,49.9,0,99.7,0,149.6c0,5.5,3.4,9,8.9,9c28.9,0,57.8,0,86.7,0c1.5,0,3.1,0,5,0c0,1.8,0,3.2,0,4.5
	c0,47.6,0.1,95.1-0.1,142.7c0,9.5-1.3,18.9-5.4,27.6c-7.4,16-20.9,24.3-37.7,25c-29.4,1.2-58.9,1.1-88.3,0.9
	c-7.7-0.1-15.7-1.8-23-4.5c-15.5-5.7-23.6-17.9-26.5-33.7c-0.8-4.5-1.1-9.1-1.2-13.7c-0.1-27.4,0-54.9,0-82.3c0-0.8,0.1-1.7,0.1-2.6
	c27.1,0,53.9,0,81.4,0c0,1.7,0,3.5,0,5.3c0,29.6,0,59.2,0,88.8c0,5.5,3.1,8.7,8.6,8.6c3.2,0,6.8,1,8.9-2.6c0.9-1.6,2-3.5,2-5.2
	c0.1-35.5,0.1-71,0.1-106.5c0-5.7-2.9-8.7-8.5-8.7c-29.2,0-58.3,0-87.5-0.1C216,332,214.4,332,212.4,332z"/>
<path d="M501.3,489.4c-26.9,0-53.6,0-80.6,0c0-93.2,0-186.4,0-279.8c26.7,0,53.5,0,80.6,0C501.3,302.8,501.3,395.9,501.3,489.4z"/>
<path class="st0" d="M464.5,82.6c12.9,0,25.9,0,38.8,0c8.5,0,12.1,4.8,11.7,13.2c-0.6,11-0.2,22.1-0.3,33.2c0,6.8-0.3,13.5,0.1,20.3
	c0.3,5.6-5.3,10.5-9.6,10.9c-8.8,0.9-17.7,1.8-26.5,2.6c-16.3,1.5-32.5,3-48.8,4.5c-1.4,0.1-2.9,0.1-4.3,0.1
	c-7.6,0.2-11-2.9-11.1-10.6c-0.1-8-0.1-16.1-0.2-24.1c-0.2-13.1-0.6-26.1-0.7-39.2c-0.1-7.1,3.6-10.8,10.9-10.8
	C437.7,82.5,451.1,82.6,464.5,82.6z"/>
<g class="st1">
	<path class="st2" d="M442,188.7c-0.6-0.3-1.1-0.6-1.7-0.9c-1.8-0.9-3.5-1.7-5.3-2.6h0.1c-0.6-0.3-1.3-0.6-1.9-0.9h-0.3l-0.3-0.2
		c-0.5-4.1-3.5-3.5-6.3-3.2l0.1,0.1c-0.5-0.9-1.1-1.8-1.2-2c4.9-0.9,10-1.9,15-2.8l-0.1,0.1c6.6-0.3,13.1-0.4,19.7-0.8
		c2.7-0.2,5.3-1.2,8-1.8l-0.1,0.1c0.1,0,0.3,0.1,0.4,0.1c13-0.8,26.1-1.6,39.1-2.6c1-0.1,2-1,2.9-1.6c4.3,0.1,8.6,0.1,12.9,0.2
		c0.3,0.2,0.6,0.4,1,0.6h-0.1c0.9,0.3,1.8,0.6,2.6,0.9l0,0c1.2,0.6,2.4,1.1,3.6,1.7l0,0c1.4,0.6,2.9,1.2,4.3,1.8h-0.1
		c0.7,0.3,1.5,0.6,2.2,0.8l0.3,0.1c3.4,3.3,7.4,5.3,12.3,5.1c0.2-0.1,0.4,0,0.6,0.1c0.4,0.2,0.7,0.4,1.1,0.6l-0.1-0.1
		c0.7,1.8,0.4,2.7-1.9,3c-10,1-20,2.1-30,3.4c-3.3,0.4-6.5,1.6-9.7,2.5l0,0c-0.3,0-0.6,0-0.8,0l-0.4,0.1l-0.4-0.1
		c-4,0.5-8.1,1.1-12.1,1.6c-1.3,0.1-2.5,0.2-3.8,0.2c-3.5,0.2-7.1,0.3-10.6,0.6c-6.9,0.6-13.9,1.4-20.8,1.8
		c-1.6,0.1-3.3-0.7-4.9-1.1c-2-0.4-4-0.9-6-1.3h-0.2L449,192C447.8,188.5,445.2,188,442,188.7z"/>
	<path class="st3" d="M509.3,190.3c3.2-0.8,6.4-2,9.7-2.5c10-1.3,20-2.4,30-3.4c2.3-0.2,2.6-1.1,1.9-3c2.1,0.7,4.2,1.4,6.2,2.1
		c0,0.4-0.1,0.8-0.1,1.2c-4.3,0.6-8.5,1.2-12.8,1.7C532.6,187.8,520.9,189,509.3,190.3z"/>
	<path class="st3" d="M449.3,192.2c2,0.4,4,0.9,6,1.3c1.6,0.4,3.3,1.2,4.9,1.1c6.9-0.5,13.9-1.3,20.8-1.8c3.5-0.3,7.1-0.4,10.6-0.6
		c-11.1,1.4-22.2,3.2-33.3,4C455.5,196.4,452.4,193.6,449.3,192.2z"/>
	<path class="st3" d="M510.2,169.7c-1,0.5-1.9,1.5-2.9,1.6c-13,0.9-26,1.7-39.1,2.6c-0.1,0-0.3,0-0.4-0.1c4.9-0.6,9.8-1.4,14.7-1.9
		C491.7,171,500.9,170.4,510.2,169.7z"/>
	<path class="st3" d="M467.8,173.7c-2.7,0.6-5.3,1.6-8,1.8c-6.5,0.5-13.1,0.6-19.7,0.8C449.4,175.4,458.6,174.5,467.8,173.7z"/>
	<path class="st3" d="M440.2,176.2c-5,1-10.1,1.9-15,2.8c0.1,0.2,0.6,1.1,1.2,2c-1.8-0.7-3.6-1.4-5.4-2.2c0-0.4,0.1-0.9,0.1-1.3
		C427.5,177.1,433.9,176.7,440.2,176.2z"/>
	<path class="st3" d="M549.2,180.7c-4.9,0.2-8.9-1.8-12.3-5.1C541,177.3,545.1,179,549.2,180.7z"/>
	<path class="st3" d="M442,188.7c3.2-0.7,5.8-0.2,7,3.3C446.6,191,444.3,189.8,442,188.7z"/>
	<path class="st3" d="M495.5,191.9c4-0.5,8.1-1.1,12.1-1.6C503.6,190.9,499.5,191.4,495.5,191.9z"/>
	<path class="st3" d="M426.3,181c2.8-0.3,5.7-0.9,6.3,3.2C430.5,183.1,428.4,182.1,426.3,181z"/>
	<path class="st3" d="M435.1,185.2c1.8,0.9,3.5,1.7,5.3,2.6C438.6,186.9,436.8,186.1,435.1,185.2z"/>
	<path class="st3" d="M534.4,174.7c-1.4-0.6-2.9-1.2-4.3-1.8C531.6,173.5,533,174.1,534.4,174.7z"/>
	<path class="st3" d="M530.2,172.9c-1.2-0.6-2.4-1.1-3.6-1.7C527.8,171.8,529,172.4,530.2,172.9z"/>
	<path class="st3" d="M526.6,171.3c-0.9-0.3-1.8-0.6-2.6-0.9C524.9,170.7,525.8,171,526.6,171.3z"/>
	<path class="st3" d="M536.6,175.5c-0.7-0.3-1.5-0.6-2.2-0.8C535.1,174.9,535.8,175.2,536.6,175.5z"/>
	<path class="st3" d="M433.2,184.4c0.6,0.3,1.3,0.6,1.9,0.9C434.5,185,433.9,184.7,433.2,184.4z"/>
	<path class="st3" d="M524.1,170.4c-0.3-0.2-0.6-0.4-1-0.6C523.4,170,523.8,170.2,524.1,170.4z"/>
	<path class="st3" d="M550.9,181.5c-0.4-0.2-0.7-0.4-1.1-0.6C550.2,181.1,550.6,181.3,550.9,181.5z"/>
	<path class="st3" d="M508.4,190.3c0.3-0.1,0.6-0.1,0.8,0C509,190.3,508.7,190.3,508.4,190.3z"/>
	<polygon class="st2" points="557.1,183.9 523.1,169.8 494.5,171.3 420.1,177.7 421,178.8 457.3,196.2 557,184.7 	"/>
	<polyline class="st2" points="557.1,183.5 536.9,177 557.1,183.9 	"/>
</g>
<path class="st0" d="M553.8,185.6l-92.4,9.4c-4.3,0.4-8.7-0.4-12.5-2.5l-25.7-14c-0.9-0.5-0.7-1.9,0.4-2l94.7-9.6
	c3.3-0.3,6.6,0.3,9.5,1.9l26.5,14.4C555.4,183.7,555,185.5,553.8,185.6z"/>
</svg>
